# This file uses centimeters as units for non-parametric coordinates.

mtllib VSWALLSBLUE.mtl
g default
v -30.549231 -3.483345 17.430456
v -29.799231 -3.483345 17.430456
v -30.549231 3.483345 17.430456
v -29.799231 3.483345 17.430456
v -30.549231 3.483345 10.482829
v -29.799231 3.483345 10.482829
v -30.549231 -3.483345 10.482829
v -29.799231 -3.483345 10.482829
v -39.504124 -3.483345 -2.209880
v -38.754124 -3.483345 -2.209880
v -39.504124 3.483345 -2.209880
v -38.754124 3.483345 -2.209880
v -39.504124 3.483345 -9.157507
v -38.754124 3.483345 -9.157507
v -39.504124 -3.483345 -9.157507
v -38.754124 -3.483345 -9.157507
v -48.327564 -3.483345 10.740301
v -47.577564 -3.483345 10.740301
v -48.327564 3.483345 10.740301
v -47.577564 3.483345 10.740301
v -48.327564 3.483345 3.792674
v -47.577564 3.483345 3.792674
v -48.327564 -3.483345 3.792674
v -47.577564 -3.483345 3.792674
v -34.292362 -3.483345 -9.489797
v -34.292362 -3.483345 -10.239797
v -34.292362 3.483345 -9.489797
v -34.292362 3.483345 -10.239797
v -39.702427 3.483345 -9.489797
v -39.702427 3.483345 -10.239797
v -39.702427 -3.483345 -9.489797
v -39.702427 -3.483345 -10.239797
v -51.813480 -3.483345 -11.881040
v -51.063480 -3.483345 -11.881040
v -51.813480 3.483345 -11.881040
v -51.063480 3.483345 -11.881040
v -51.813480 3.483345 -17.291107
v -51.063480 3.483345 -17.291107
v -51.813480 -3.483345 -17.291107
v -51.063480 -3.483345 -17.291107
vt 0.453958 0.291604
vt 0.501205 0.291863
vt 0.498536 0.777989
vt 0.498795 0.730741
vt 0.983720 0.733404
vt 0.936472 0.733145
vt 0.939142 0.247020
vt 0.938882 0.294267
vt 0.501465 0.244616
vt 0.016281 0.289201
vt 0.013871 0.728078
vt 0.452467 0.292374
vt 0.499814 0.292333
vt 0.500186 0.732133
vt 0.500226 0.779480
vt 0.938782 0.731762
vt 0.986129 0.731722
vt 0.938410 0.291963
vt 0.938370 0.244616
vt 0.499774 0.244987
vt 0.013871 0.292745
vt 0.014243 0.732545
vt 0.455532 0.291155
vt 0.502639 0.291724
vt 0.497361 0.729303
vt 0.496792 0.776411
vt 0.933743 0.734567
vt 0.980850 0.735135
vt 0.939021 0.296988
vt 0.939590 0.249880
vt 0.503207 0.244616
vt 0.019149 0.285891
vt 0.013871 0.723471
vt 0.443956 0.236730
vt 0.502802 0.237333
vt 0.497199 0.783950
vt 0.496596 0.842796
vt 0.921681 0.788301
vt 0.980527 0.788905
vt 0.927284 0.241685
vt 0.927887 0.182838
vt 0.503405 0.178487
vt 0.019474 0.232378
vt 0.013871 0.778995
vt 0.446704 0.235904
vt 0.505252 0.237035
vt 0.494748 0.780881
vt 0.493618 0.839428
vt 0.917078 0.789037
vt 0.975626 0.790167
vt 0.927581 0.245191
vt 0.928712 0.186644
vt 0.506382 0.178487
vt 0.024374 0.227748
vt 0.013871 0.771594
vt 0.986129 0.246322
vt 0.915948 0.847585
vt 0.436201 0.779750
vt 0.986129 0.242288
vt 0.921077 0.847148
vt 0.438353 0.783347
vt 0.986129 0.297556
vt 0.933175 0.781675
vt 0.450253 0.728735
vt 0.985757 0.291922
vt 0.938822 0.779109
vt 0.452839 0.732173
vt 0.986129 0.294526
vt 0.936213 0.780392
vt 0.451548 0.730482
vn 0.000000 0.000000 1.000000
vn 0.000000 0.000000 1.000000
vn 0.000000 0.000000 1.000000
vn 0.000000 0.000000 1.000000
vn 0.000000 1.000000 0.000000
vn 0.000000 1.000000 0.000000
vn 0.000000 1.000000 0.000000
vn 0.000000 1.000000 0.000000
vn 0.000000 0.000000 -1.000000
vn 0.000000 0.000000 -1.000000
vn 0.000000 0.000000 -1.000000
vn 0.000000 0.000000 -1.000000
vn 0.000000 -1.000000 0.000000
vn 0.000000 -1.000000 0.000000
vn 0.000000 -1.000000 0.000000
vn 0.000000 -1.000000 0.000000
vn 1.000000 0.000000 0.000000
vn 1.000000 0.000000 0.000000
vn 1.000000 0.000000 0.000000
vn 1.000000 0.000000 0.000000
vn -1.000000 0.000000 0.000000
vn -1.000000 0.000000 0.000000
vn -1.000000 0.000000 0.000000
vn -1.000000 0.000000 0.000000
vn 0.000000 0.000000 1.000000
vn 0.000000 0.000000 1.000000
vn 0.000000 0.000000 1.000000
vn 0.000000 0.000000 1.000000
vn 0.000000 1.000000 0.000000
vn 0.000000 1.000000 0.000000
vn 0.000000 1.000000 0.000000
vn 0.000000 1.000000 0.000000
vn 0.000000 0.000000 -1.000000
vn 0.000000 0.000000 -1.000000
vn 0.000000 0.000000 -1.000000
vn 0.000000 0.000000 -1.000000
vn 0.000000 -1.000000 0.000000
vn 0.000000 -1.000000 0.000000
vn 0.000000 -1.000000 0.000000
vn 0.000000 -1.000000 0.000000
vn 1.000000 0.000000 0.000000
vn 1.000000 0.000000 0.000000
vn 1.000000 0.000000 0.000000
vn 1.000000 0.000000 0.000000
vn -1.000000 0.000000 0.000000
vn -1.000000 0.000000 0.000000
vn -1.000000 0.000000 0.000000
vn -1.000000 0.000000 0.000000
vn 0.000000 0.000000 1.000000
vn 0.000000 0.000000 1.000000
vn 0.000000 0.000000 1.000000
vn 0.000000 0.000000 1.000000
vn 0.000000 1.000000 0.000000
vn 0.000000 1.000000 0.000000
vn 0.000000 1.000000 0.000000
vn 0.000000 1.000000 0.000000
vn 0.000000 0.000000 -1.000000
vn 0.000000 0.000000 -1.000000
vn 0.000000 0.000000 -1.000000
vn 0.000000 0.000000 -1.000000
vn 0.000000 -1.000000 0.000000
vn 0.000000 -1.000000 0.000000
vn 0.000000 -1.000000 0.000000
vn 0.000000 -1.000000 0.000000
vn 1.000000 0.000000 0.000000
vn 1.000000 0.000000 0.000000
vn 1.000000 0.000000 0.000000
vn 1.000000 0.000000 0.000000
vn -1.000000 0.000000 0.000000
vn -1.000000 0.000000 0.000000
vn -1.000000 0.000000 0.000000
vn -1.000000 0.000000 0.000000
vn 1.000000 0.000000 0.000000
vn 1.000000 0.000000 0.000000
vn 1.000000 0.000000 0.000000
vn 1.000000 0.000000 0.000000
vn 0.000000 1.000000 0.000000
vn 0.000000 1.000000 0.000000
vn 0.000000 1.000000 0.000000
vn 0.000000 1.000000 0.000000
vn -1.000000 0.000000 0.000000
vn -1.000000 0.000000 0.000000
vn -1.000000 0.000000 0.000000
vn -1.000000 0.000000 0.000000
vn 0.000000 -1.000000 0.000000
vn 0.000000 -1.000000 0.000000
vn 0.000000 -1.000000 0.000000
vn 0.000000 -1.000000 0.000000
vn 0.000000 0.000000 -1.000000
vn 0.000000 0.000000 -1.000000
vn 0.000000 0.000000 -1.000000
vn 0.000000 0.000000 -1.000000
vn 0.000000 0.000000 1.000000
vn 0.000000 0.000000 1.000000
vn 0.000000 0.000000 1.000000
vn 0.000000 0.000000 1.000000
vn 0.000000 0.000000 1.000000
vn 0.000000 0.000000 1.000000
vn 0.000000 0.000000 1.000000
vn 0.000000 0.000000 1.000000
vn 0.000000 1.000000 0.000000
vn 0.000000 1.000000 0.000000
vn 0.000000 1.000000 0.000000
vn 0.000000 1.000000 0.000000
vn 0.000000 0.000000 -1.000000
vn 0.000000 0.000000 -1.000000
vn 0.000000 0.000000 -1.000000
vn 0.000000 0.000000 -1.000000
vn 0.000000 -1.000000 0.000000
vn 0.000000 -1.000000 0.000000
vn 0.000000 -1.000000 0.000000
vn 0.000000 -1.000000 0.000000
vn 1.000000 0.000000 0.000000
vn 1.000000 0.000000 0.000000
vn 1.000000 0.000000 0.000000
vn 1.000000 0.000000 0.000000
vn -1.000000 0.000000 0.000000
vn -1.000000 0.000000 0.000000
vn -1.000000 0.000000 0.000000
vn -1.000000 0.000000 0.000000
s off
g BLUE1
usemtl aiStandardSurface4SG
f 1/1/1 2/2/2 4/4/3 3/70/4
f 3/3/5 4/4/6 6/6/7 5/69/8
f 5/5/9 6/6/10 8/8/11 7/68/12
f 7/7/13 8/8/14 2/2/15 1/9/16
f 2/2/17 8/8/18 6/6/19 4/4/20
f 7/10/21 1/1/22 3/70/23 5/11/24
f 9/12/25 10/13/26 12/14/27 11/67/28
f 11/15/29 12/14/30 14/16/31 13/66/32
f 13/17/33 14/16/34 16/18/35 15/65/36
f 15/19/37 16/18/38 10/13/39 9/20/40
f 10/13/41 16/18/42 14/16/43 12/14/44
f 15/21/45 9/12/46 11/67/47 13/22/48
f 17/23/49 18/24/50 20/25/51 19/64/52
f 19/26/53 20/25/54 22/27/55 21/63/56
f 21/28/57 22/27/58 24/29/59 23/62/60
f 23/30/61 24/29/62 18/24/63 17/31/64
f 18/24/65 24/29/66 22/27/67 20/25/68
f 23/32/69 17/23/70 19/64/71 21/33/72
f 25/34/73 26/35/74 28/36/75 27/61/76
f 27/37/77 28/36/78 30/38/79 29/60/80
f 29/39/81 30/38/82 32/40/83 31/59/84
f 31/41/85 32/40/86 26/35/87 25/42/88
f 26/35/89 32/40/90 30/38/91 28/36/92
f 31/43/93 25/34/94 27/61/95 29/44/96
f 33/45/97 34/46/98 36/47/99 35/58/100
f 35/48/101 36/47/102 38/49/103 37/57/104
f 37/50/105 38/49/106 40/51/107 39/56/108
f 39/52/109 40/51/110 34/46/111 33/53/112
f 34/46/113 40/51/114 38/49/115 36/47/116
f 39/54/117 33/45/118 35/58/119 37/55/120
