# This file uses centimeters as units for non-parametric coordinates.

mtllib VSWALLSRED.mtl
g default
v -25.607300 -3.483345 10.484561
v -24.857300 -3.483345 10.484561
v -25.607300 3.483345 10.484561
v -24.857300 3.483345 10.484561
v -25.607300 3.483345 3.536933
v -24.857300 3.483345 3.536933
v -25.607300 -3.483345 3.536933
v -24.857300 -3.483345 3.536933
v -44.151714 -3.483345 20.368004
v -43.401714 -3.483345 20.368004
v -44.151714 3.483345 20.368004
v -43.401714 3.483345 20.368004
v -44.151714 3.483345 13.420377
v -43.401714 3.483345 13.420377
v -44.151714 -3.483345 13.420377
v -43.401714 -3.483345 13.420377
v -38.155407 -3.483345 -6.699875
v -38.155407 -3.483345 -7.449875
v -38.155407 3.483345 -6.699875
v -38.155407 3.483345 -7.449875
v -43.820248 3.483345 -6.699875
v -43.820248 3.483345 -7.449875
v -43.820248 -3.483345 -6.699875
v -43.820248 -3.483345 -7.449875
v -48.970978 -3.483345 -2.873377
v -48.970978 -3.483345 -3.623377
v -48.970978 3.483345 -2.873377
v -48.970978 3.483345 -3.623377
v -54.635818 3.483345 -2.873377
v -54.635818 3.483345 -3.623377
v -54.635818 -3.483345 -2.873377
v -54.635818 -3.483345 -3.623377
vt 0.454109 0.250429
vt 0.500112 0.250453
vt 0.499864 0.723768
vt 0.499888 0.677765
vt 0.972033 0.678013
vt 0.926031 0.677989
vt 0.926279 0.204673
vt 0.926256 0.250676
vt 0.500136 0.204450
vt 0.027966 0.250205
vt 0.027742 0.677518
vt 0.455317 0.250085
vt 0.501212 0.250346
vt 0.498788 0.676664
vt 0.498527 0.722559
vt 0.923940 0.679081
vt 0.969835 0.679341
vt 0.926363 0.252763
vt 0.926624 0.206867
vt 0.501473 0.204450
vt 0.030165 0.247668
vt 0.027742 0.673986
vt 0.445729 0.215866
vt 0.500845 0.216048
vt 0.499155 0.728015
vt 0.498973 0.783131
vt 0.915452 0.729390
vt 0.970568 0.729572
vt 0.917142 0.217422
vt 0.917325 0.162306
vt 0.501027 0.160932
vt 0.029432 0.214491
vt 0.027742 0.726459
vt 0.446180 0.215732
vt 0.501249 0.216001
vt 0.498752 0.727531
vt 0.498483 0.782599
vt 0.914693 0.729561
vt 0.969763 0.729830
vt 0.917190 0.218031
vt 0.917459 0.162963
vt 0.501518 0.160932
vt 0.030239 0.213702
vt 0.027742 0.725232
vt 0.444039 0.727833
vt 0.452893 0.676403
vt 0.453885 0.677741
vt 0.972258 0.217604
vt 0.915270 0.784506
vt 0.972258 0.253024
vt 0.923679 0.724976
vt 0.972258 0.250700
vt 0.926007 0.723991
vt 0.972258 0.218300
vt 0.914425 0.784630
vt 0.443683 0.727262
vn 0.000000 0.000000 1.000000
vn 0.000000 0.000000 1.000000
vn 0.000000 0.000000 1.000000
vn 0.000000 0.000000 1.000000
vn 0.000000 1.000000 0.000000
vn 0.000000 1.000000 0.000000
vn 0.000000 1.000000 0.000000
vn 0.000000 1.000000 0.000000
vn 0.000000 0.000000 -1.000000
vn 0.000000 0.000000 -1.000000
vn 0.000000 0.000000 -1.000000
vn 0.000000 0.000000 -1.000000
vn 0.000000 -1.000000 0.000000
vn 0.000000 -1.000000 0.000000
vn 0.000000 -1.000000 0.000000
vn 0.000000 -1.000000 0.000000
vn 1.000000 0.000000 0.000000
vn 1.000000 0.000000 0.000000
vn 1.000000 0.000000 0.000000
vn 1.000000 0.000000 0.000000
vn -1.000000 0.000000 0.000000
vn -1.000000 0.000000 0.000000
vn -1.000000 0.000000 0.000000
vn -1.000000 0.000000 0.000000
vn 0.000000 0.000000 1.000000
vn 0.000000 0.000000 1.000000
vn 0.000000 0.000000 1.000000
vn 0.000000 0.000000 1.000000
vn 0.000000 1.000000 0.000000
vn 0.000000 1.000000 0.000000
vn 0.000000 1.000000 0.000000
vn 0.000000 1.000000 0.000000
vn 0.000000 0.000000 -1.000000
vn 0.000000 0.000000 -1.000000
vn 0.000000 0.000000 -1.000000
vn 0.000000 0.000000 -1.000000
vn 0.000000 -1.000000 0.000000
vn 0.000000 -1.000000 0.000000
vn 0.000000 -1.000000 0.000000
vn 0.000000 -1.000000 0.000000
vn 1.000000 0.000000 0.000000
vn 1.000000 0.000000 0.000000
vn 1.000000 0.000000 0.000000
vn 1.000000 0.000000 0.000000
vn -1.000000 0.000000 0.000000
vn -1.000000 0.000000 0.000000
vn -1.000000 0.000000 0.000000
vn -1.000000 0.000000 0.000000
vn 1.000000 0.000000 0.000000
vn 1.000000 0.000000 0.000000
vn 1.000000 0.000000 0.000000
vn 1.000000 0.000000 0.000000
vn 0.000000 1.000000 0.000000
vn 0.000000 1.000000 0.000000
vn 0.000000 1.000000 0.000000
vn 0.000000 1.000000 0.000000
vn -1.000000 0.000000 0.000000
vn -1.000000 0.000000 0.000000
vn -1.000000 0.000000 0.000000
vn -1.000000 0.000000 0.000000
vn 0.000000 -1.000000 0.000000
vn 0.000000 -1.000000 0.000000
vn 0.000000 -1.000000 0.000000
vn 0.000000 -1.000000 0.000000
vn 0.000000 0.000000 -1.000000
vn 0.000000 0.000000 -1.000000
vn 0.000000 0.000000 -1.000000
vn 0.000000 0.000000 -1.000000
vn 0.000000 0.000000 1.000000
vn 0.000000 0.000000 1.000000
vn 0.000000 0.000000 1.000000
vn 0.000000 0.000000 1.000000
vn 1.000000 0.000000 0.000000
vn 1.000000 0.000000 0.000000
vn 1.000000 0.000000 0.000000
vn 1.000000 0.000000 0.000000
vn 0.000000 1.000000 0.000000
vn 0.000000 1.000000 0.000000
vn 0.000000 1.000000 0.000000
vn 0.000000 1.000000 0.000000
vn -1.000000 0.000000 0.000000
vn -1.000000 0.000000 0.000000
vn -1.000000 0.000000 0.000000
vn -1.000000 0.000000 0.000000
vn 0.000000 -1.000000 0.000000
vn 0.000000 -1.000000 0.000000
vn 0.000000 -1.000000 0.000000
vn 0.000000 -1.000000 0.000000
vn 0.000000 0.000000 -1.000000
vn 0.000000 0.000000 -1.000000
vn 0.000000 0.000000 -1.000000
vn 0.000000 0.000000 -1.000000
vn 0.000000 0.000000 1.000000
vn 0.000000 0.000000 1.000000
vn 0.000000 0.000000 1.000000
vn 0.000000 0.000000 1.000000
s off
g RED1
usemtl aiStandardSurface2SG
f 1/1/1 2/2/2 4/4/3 3/47/4
f 3/3/5 4/4/6 6/6/7 5/53/8
f 5/5/9 6/6/10 8/8/11 7/52/12
f 7/7/13 8/8/14 2/2/15 1/9/16
f 2/2/17 8/8/18 6/6/19 4/4/20
f 7/10/21 1/1/22 3/47/23 5/11/24
f 9/12/25 10/13/26 12/14/27 11/46/28
f 11/15/29 12/14/30 14/16/31 13/51/32
f 13/17/33 14/16/34 16/18/35 15/50/36
f 15/19/37 16/18/38 10/13/39 9/20/40
f 10/13/41 16/18/42 14/16/43 12/14/44
f 15/21/45 9/12/46 11/46/47 13/22/48
f 17/23/49 18/24/50 20/25/51 19/45/52
f 19/26/53 20/25/54 22/27/55 21/49/56
f 21/28/57 22/27/58 24/29/59 23/48/60
f 23/30/61 24/29/62 18/24/63 17/31/64
f 18/24/65 24/29/66 22/27/67 20/25/68
f 23/32/69 17/23/70 19/45/71 21/33/72
f 25/34/73 26/35/74 28/36/75 27/56/76
f 27/37/77 28/36/78 30/38/79 29/55/80
f 29/39/81 30/38/82 32/40/83 31/54/84
f 31/41/85 32/40/86 26/35/87 25/42/88
f 26/35/89 32/40/90 30/38/91 28/36/92
f 31/43/93 25/34/94 27/56/95 29/44/96
