# This file uses centimeters as units for non-parametric coordinates.

mtllib VSWALLSGREEN.mtl
g default
v -28.455168 -3.483345 -2.257547
v -27.705168 -3.483345 -2.257547
v -28.455168 3.483345 -2.257547
v -27.705168 3.483345 -2.257547
v -28.455168 3.483345 -9.205174
v -27.705168 3.483345 -9.205174
v -28.455168 -3.483345 -9.205174
v -27.705168 -3.483345 -9.205174
v -30.101654 -3.483345 16.935900
v -29.846395 -3.483345 16.230673
v -30.101654 3.483345 16.935900
v -29.846395 3.483345 16.230673
v -36.634514 3.483345 14.571319
v -36.379257 3.483345 13.866093
v -36.634514 -3.483345 14.571319
v -36.379257 -3.483345 13.866093
v -52.090523 -3.483345 4.052627
v -52.090523 -3.483345 3.302626
v -52.090523 3.483345 4.052627
v -52.090523 3.483345 3.302626
v -59.038147 3.483345 4.052627
v -59.038147 3.483345 3.302626
v -59.038147 -3.483345 4.052627
v -59.038147 -3.483345 3.302626
v -32.679852 -3.483345 -6.697322
v -32.679852 -3.483345 -7.447322
v -32.679852 3.483345 -6.697322
v -32.679852 3.483345 -7.447322
v -39.627476 3.483345 -6.697322
v -39.627476 3.483345 -7.447322
v -39.627476 -3.483345 -6.697322
v -39.627476 -3.483345 -7.447322
v -22.656836 -3.483345 -2.447878
v -22.656836 -3.483345 -3.197878
v -22.656836 3.483345 -2.447878
v -22.656836 3.483345 -3.197878
v -29.604464 3.483345 -2.447878
v -29.604464 3.483345 -3.197878
v -29.604464 -3.483345 -2.447878
v -29.604464 -3.483345 -3.197878
v -44.288742 -3.483345 -0.007907
v -43.538742 -3.483345 -0.007907
v -44.288742 3.483345 -0.007907
v -43.538742 3.483345 -0.007907
v -44.288742 3.483345 -6.955534
v -43.538742 3.483345 -6.955534
v -44.288742 -3.483345 -6.955534
v -43.538742 -3.483345 -6.955534
vt 0.452001 0.227671
vt 0.499298 0.227520
vt 0.500854 0.714149
vt 0.500703 0.666852
vt 0.986129 0.665300
vt 0.938833 0.665451
vt 0.937277 0.178822
vt 0.937428 0.226119
vt 0.499147 0.180223
vt 0.013871 0.229072
vt 0.015276 0.668405
vt 0.454035 0.225788
vt 0.501276 0.226063
vt 0.498724 0.664876
vt 0.498450 0.712117
vt 0.936337 0.667421
vt 0.983578 0.667696
vt 0.938889 0.228608
vt 0.939164 0.181367
vt 0.501551 0.178822
vt 0.016422 0.223243
vt 0.013871 0.662057
vt 0.456905 0.224970
vt 0.503891 0.225808
vt 0.496109 0.662255
vt 0.495271 0.709240
vt 0.931361 0.670016
vt 0.978347 0.670854
vt 0.939143 0.233569
vt 0.939981 0.186583
vt 0.504729 0.178822
vt 0.021653 0.217209
vt 0.013871 0.653656
vt 0.457663 0.224754
vt 0.504581 0.225741
vt 0.495419 0.661563
vt 0.494432 0.708481
vt 0.930048 0.670700
vt 0.976966 0.671687
vt 0.939211 0.234878
vt 0.940197 0.187960
vt 0.505568 0.178822
vt 0.023034 0.215617
vt 0.013871 0.651439
vt 0.454459 0.225667
vt 0.501662 0.226025
vt 0.498338 0.664489
vt 0.497980 0.711692
vt 0.935602 0.667804
vt 0.982805 0.668162
vt 0.938926 0.229340
vt 0.939284 0.182137
vt 0.502019 0.178822
vt 0.017194 0.222353
vt 0.013871 0.660817
vt 0.452001 0.227671
vt 0.499298 0.227520
vt 0.500702 0.666852
vt 0.500854 0.714149
vt 0.938833 0.665451
vt 0.986129 0.665300
vt 0.937428 0.226119
vt 0.937277 0.178822
vt 0.499146 0.180223
vt 0.013871 0.229072
vt 0.015276 0.668404
vt 0.984725 0.225968
vt 0.938984 0.712748
vt 0.453406 0.667004
vt 0.986129 0.229698
vt 0.935244 0.715007
vt 0.451135 0.664131
vt 0.986129 0.235865
vt 0.929062 0.717619
vt 0.448500 0.660576
vt 0.986129 0.234407
vt 0.930523 0.717002
vt 0.449123 0.661417
vt 0.986129 0.228882
vt 0.936063 0.714662
vt 0.451484 0.664602
vt 0.984725 0.225968
vt 0.938984 0.712748
vt 0.453406 0.667004
vn 0.000000 0.000000 1.000000
vn 0.000000 0.000000 1.000000
vn 0.000000 0.000000 1.000000
vn 0.000000 0.000000 1.000000
vn 0.000000 1.000000 0.000000
vn 0.000000 1.000000 0.000000
vn 0.000000 1.000000 0.000000
vn 0.000000 1.000000 0.000000
vn 0.000000 0.000000 -1.000000
vn 0.000000 0.000000 -1.000000
vn 0.000000 0.000000 -1.000000
vn 0.000000 0.000000 -1.000000
vn 0.000000 -1.000000 0.000000
vn 0.000000 -1.000000 0.000000
vn 0.000000 -1.000000 0.000000
vn 0.000000 -1.000000 0.000000
vn 1.000000 0.000000 0.000000
vn 1.000000 0.000000 0.000000
vn 1.000000 0.000000 0.000000
vn 1.000000 0.000000 0.000000
vn -1.000000 0.000000 0.000000
vn -1.000000 0.000000 0.000000
vn -1.000000 0.000000 0.000000
vn -1.000000 0.000000 0.000000
vn 0.940301 0.000000 0.340344
vn 0.940301 0.000000 0.340344
vn 0.940301 0.000000 0.340344
vn 0.940301 0.000000 0.340344
vn 0.000000 1.000000 0.000000
vn 0.000000 1.000000 0.000000
vn 0.000000 1.000000 0.000000
vn 0.000000 1.000000 0.000000
vn -0.940302 0.000000 -0.340342
vn -0.940302 0.000000 -0.340342
vn -0.940302 0.000000 -0.340342
vn -0.940302 0.000000 -0.340342
vn 0.000000 -1.000000 0.000000
vn 0.000000 -1.000000 0.000000
vn 0.000000 -1.000000 0.000000
vn 0.000000 -1.000000 0.000000
vn 0.340344 0.000000 -0.940301
vn 0.340344 0.000000 -0.940301
vn 0.340344 0.000000 -0.940301
vn 0.340344 0.000000 -0.940301
vn -0.340344 0.000000 0.940301
vn -0.340344 0.000000 0.940301
vn -0.340344 0.000000 0.940301
vn -0.340344 0.000000 0.940301
vn 1.000000 0.000000 0.000000
vn 1.000000 0.000000 0.000000
vn 1.000000 0.000000 0.000000
vn 1.000000 0.000000 0.000000
vn 0.000000 1.000000 0.000000
vn 0.000000 1.000000 0.000000
vn 0.000000 1.000000 0.000000
vn 0.000000 1.000000 0.000000
vn -1.000000 0.000000 0.000000
vn -1.000000 0.000000 0.000000
vn -1.000000 0.000000 0.000000
vn -1.000000 0.000000 0.000000
vn 0.000000 -1.000000 0.000000
vn 0.000000 -1.000000 0.000000
vn 0.000000 -1.000000 0.000000
vn 0.000000 -1.000000 0.000000
vn 0.000000 0.000000 -1.000000
vn 0.000000 0.000000 -1.000000
vn 0.000000 0.000000 -1.000000
vn 0.000000 0.000000 -1.000000
vn 0.000000 0.000000 1.000000
vn 0.000000 0.000000 1.000000
vn 0.000000 0.000000 1.000000
vn 0.000000 0.000000 1.000000
vn 1.000000 0.000000 0.000000
vn 1.000000 0.000000 0.000000
vn 1.000000 0.000000 0.000000
vn 1.000000 0.000000 0.000000
vn 0.000000 1.000000 0.000000
vn 0.000000 1.000000 0.000000
vn 0.000000 1.000000 0.000000
vn 0.000000 1.000000 0.000000
vn -1.000000 0.000000 0.000000
vn -1.000000 0.000000 0.000000
vn -1.000000 0.000000 0.000000
vn -1.000000 0.000000 0.000000
vn 0.000000 -1.000000 0.000000
vn 0.000000 -1.000000 0.000000
vn 0.000000 -1.000000 0.000000
vn 0.000000 -1.000000 0.000000
vn 0.000000 0.000000 -1.000000
vn 0.000000 0.000000 -1.000000
vn 0.000000 0.000000 -1.000000
vn 0.000000 0.000000 -1.000000
vn 0.000000 0.000000 1.000000
vn 0.000000 0.000000 1.000000
vn 0.000000 0.000000 1.000000
vn 0.000000 0.000000 1.000000
vn 1.000000 0.000000 0.000000
vn 1.000000 0.000000 0.000000
vn 1.000000 0.000000 0.000000
vn 1.000000 0.000000 0.000000
vn 0.000000 1.000000 0.000000
vn 0.000000 1.000000 0.000000
vn 0.000000 1.000000 0.000000
vn 0.000000 1.000000 0.000000
vn -1.000000 0.000000 0.000000
vn -1.000000 0.000000 0.000000
vn -1.000000 0.000000 0.000000
vn -1.000000 0.000000 0.000000
vn 0.000000 -1.000000 0.000000
vn 0.000000 -1.000000 0.000000
vn 0.000000 -1.000000 0.000000
vn 0.000000 -1.000000 0.000000
vn 0.000000 0.000000 -1.000000
vn 0.000000 0.000000 -1.000000
vn 0.000000 0.000000 -1.000000
vn 0.000000 0.000000 -1.000000
vn 0.000000 0.000000 1.000000
vn 0.000000 0.000000 1.000000
vn 0.000000 0.000000 1.000000
vn 0.000000 0.000000 1.000000
vn 0.000000 0.000000 1.000000
vn 0.000000 0.000000 1.000000
vn 0.000000 0.000000 1.000000
vn 0.000000 0.000000 1.000000
vn 0.000000 1.000000 0.000000
vn 0.000000 1.000000 0.000000
vn 0.000000 1.000000 0.000000
vn 0.000000 1.000000 0.000000
vn 0.000000 0.000000 -1.000000
vn 0.000000 0.000000 -1.000000
vn 0.000000 0.000000 -1.000000
vn 0.000000 0.000000 -1.000000
vn 0.000000 -1.000000 0.000000
vn 0.000000 -1.000000 0.000000
vn 0.000000 -1.000000 0.000000
vn 0.000000 -1.000000 0.000000
vn 1.000000 0.000000 0.000000
vn 1.000000 0.000000 0.000000
vn 1.000000 0.000000 0.000000
vn 1.000000 0.000000 0.000000
vn -1.000000 0.000000 0.000000
vn -1.000000 0.000000 0.000000
vn -1.000000 0.000000 0.000000
vn -1.000000 0.000000 0.000000
s off
g GREEN6
usemtl aiStandardSurface3SG
f 1/1/1 2/2/2 4/4/3 3/84/4
f 3/3/5 4/4/6 6/6/7 5/83/8
f 5/5/9 6/6/10 8/8/11 7/82/12
f 7/7/13 8/8/14 2/2/15 1/9/16
f 2/2/17 8/8/18 6/6/19 4/4/20
f 7/10/21 1/1/22 3/84/23 5/11/24
f 9/12/25 10/13/26 12/14/27 11/81/28
f 11/15/29 12/14/30 14/16/31 13/80/32
f 13/17/33 14/16/34 16/18/35 15/79/36
f 15/19/37 16/18/38 10/13/39 9/20/40
f 10/13/41 16/18/42 14/16/43 12/14/44
f 15/21/45 9/12/46 11/81/47 13/22/48
f 17/23/49 18/24/50 20/25/51 19/78/52
f 19/26/53 20/25/54 22/27/55 21/77/56
f 21/28/57 22/27/58 24/29/59 23/76/60
f 23/30/61 24/29/62 18/24/63 17/31/64
f 18/24/65 24/29/66 22/27/67 20/25/68
f 23/32/69 17/23/70 19/78/71 21/33/72
f 25/34/73 26/35/74 28/36/75 27/75/76
f 27/37/77 28/36/78 30/38/79 29/74/80
f 29/39/81 30/38/82 32/40/83 31/73/84
f 31/41/85 32/40/86 26/35/87 25/42/88
f 26/35/89 32/40/90 30/38/91 28/36/92
f 31/43/93 25/34/94 27/75/95 29/44/96
f 33/45/97 34/46/98 36/47/99 35/72/100
f 35/48/101 36/47/102 38/49/103 37/71/104
f 37/50/105 38/49/106 40/51/107 39/70/108
f 39/52/109 40/51/110 34/46/111 33/53/112
f 34/46/113 40/51/114 38/49/115 36/47/116
f 39/54/117 33/45/118 35/72/119 37/55/120
f 41/56/121 42/57/122 44/58/123 43/69/124
f 43/59/125 44/58/126 46/60/127 45/68/128
f 45/61/129 46/60/130 48/62/131 47/67/132
f 47/63/133 48/62/134 42/57/135 41/64/136
f 42/57/137 48/62/138 46/60/139 44/58/140
f 47/65/141 41/56/142 43/69/143 45/66/144
