# This file uses centimeters as units for non-parametric coordinates.

mtllib WALLSRED.mtl
g default
v 17.676619 -3.483345 -10.965425
v 17.676619 -3.483345 -11.715425
v 17.676619 3.483345 -10.965425
v 17.676619 3.483345 -11.715425
v 10.728991 3.483345 -10.965425
v 10.728991 3.483345 -11.715425
v 10.728991 -3.483345 -10.965425
v 10.728991 -3.483345 -11.715425
v 21.570446 -3.483345 2.987938
v 21.570446 -3.483345 2.237938
v 21.570446 3.483345 2.987938
v 21.570446 3.483345 2.237938
v 14.622818 3.483345 2.987938
v 14.622818 3.483345 2.237938
v 14.622818 -3.483345 2.987938
v 14.622818 -3.483345 2.237938
v 12.183884 -3.483345 2.912517
v 12.183884 -3.483345 2.162517
v 12.183884 3.483345 2.912517
v 12.183884 3.483345 2.162517
v 5.236256 3.483345 2.912517
v 5.236256 3.483345 2.162517
v 5.236256 -3.483345 2.912517
v 5.236256 -3.483345 2.162517
v 33.279808 -3.483345 -9.851512
v 34.029808 -3.483345 -9.851512
v 33.279808 3.483345 -9.851512
v 34.029808 3.483345 -9.851512
v 33.279808 3.483345 -16.799139
v 34.029808 3.483345 -16.799139
v 33.279808 -3.483345 -16.799139
v 34.029808 -3.483345 -16.799139
vt 0.454756 0.267309
vt 0.500701 0.267460
vt 0.499148 0.740185
vt 0.499299 0.694240
vt 0.970856 0.695790
vt 0.924911 0.695639
vt 0.926464 0.222914
vt 0.926313 0.268859
vt 0.500852 0.221515
vt 0.029144 0.265911
vt 0.027742 0.692690
vt 0.972258 0.269010
vt 0.924760 0.741584
vt 0.453354 0.694089
vt 0.454756 0.267309
vt 0.500701 0.267460
vt 0.499299 0.694240
vt 0.453354 0.694089
vt 0.499148 0.740185
vt 0.924911 0.695639
vt 0.924760 0.741584
vt 0.970856 0.695790
vt 0.926313 0.268859
vt 0.972258 0.269010
vt 0.926464 0.222914
vt 0.500852 0.221515
vt 0.029144 0.265911
vt 0.027742 0.692690
vt 0.454756 0.267309
vt 0.500701 0.267460
vt 0.499299 0.694240
vt 0.453354 0.694089
vt 0.499148 0.740185
vt 0.924911 0.695639
vt 0.924760 0.741584
vt 0.970856 0.695790
vt 0.926313 0.268859
vt 0.972258 0.269010
vt 0.926464 0.222914
vt 0.500852 0.221515
vt 0.029144 0.265911
vt 0.027742 0.692690
vt 0.454756 0.267309
vt 0.500701 0.267460
vt 0.499299 0.694240
vt 0.453354 0.694089
vt 0.499148 0.740185
vt 0.924911 0.695639
vt 0.924760 0.741584
vt 0.970856 0.695790
vt 0.926313 0.268859
vt 0.972258 0.269010
vt 0.926464 0.222914
vt 0.500852 0.221515
vt 0.029144 0.265911
vt 0.027742 0.692690
vn 1.000000 0.000000 0.000000
vn 1.000000 0.000000 0.000000
vn 1.000000 0.000000 0.000000
vn 1.000000 0.000000 0.000000
vn 0.000000 1.000000 0.000000
vn 0.000000 1.000000 0.000000
vn 0.000000 1.000000 0.000000
vn 0.000000 1.000000 0.000000
vn -1.000000 0.000000 0.000000
vn -1.000000 0.000000 0.000000
vn -1.000000 0.000000 0.000000
vn -1.000000 0.000000 0.000000
vn 0.000000 -1.000000 0.000000
vn 0.000000 -1.000000 0.000000
vn 0.000000 -1.000000 0.000000
vn 0.000000 -1.000000 0.000000
vn 0.000000 0.000000 -1.000000
vn 0.000000 0.000000 -1.000000
vn 0.000000 0.000000 -1.000000
vn 0.000000 0.000000 -1.000000
vn 0.000000 0.000000 1.000000
vn 0.000000 0.000000 1.000000
vn 0.000000 0.000000 1.000000
vn 0.000000 0.000000 1.000000
vn 1.000000 0.000000 0.000000
vn 1.000000 0.000000 0.000000
vn 1.000000 0.000000 0.000000
vn 1.000000 0.000000 0.000000
vn 0.000000 1.000000 0.000000
vn 0.000000 1.000000 0.000000
vn 0.000000 1.000000 0.000000
vn 0.000000 1.000000 0.000000
vn -1.000000 0.000000 0.000000
vn -1.000000 0.000000 0.000000
vn -1.000000 0.000000 0.000000
vn -1.000000 0.000000 0.000000
vn 0.000000 -1.000000 0.000000
vn 0.000000 -1.000000 0.000000
vn 0.000000 -1.000000 0.000000
vn 0.000000 -1.000000 0.000000
vn 0.000000 0.000000 -1.000000
vn 0.000000 0.000000 -1.000000
vn 0.000000 0.000000 -1.000000
vn 0.000000 0.000000 -1.000000
vn 0.000000 0.000000 1.000000
vn 0.000000 0.000000 1.000000
vn 0.000000 0.000000 1.000000
vn 0.000000 0.000000 1.000000
vn 1.000000 0.000000 0.000000
vn 1.000000 0.000000 0.000000
vn 1.000000 0.000000 0.000000
vn 1.000000 0.000000 0.000000
vn 0.000000 1.000000 0.000000
vn 0.000000 1.000000 0.000000
vn 0.000000 1.000000 0.000000
vn 0.000000 1.000000 0.000000
vn -1.000000 0.000000 0.000000
vn -1.000000 0.000000 0.000000
vn -1.000000 0.000000 0.000000
vn -1.000000 0.000000 0.000000
vn 0.000000 -1.000000 0.000000
vn 0.000000 -1.000000 0.000000
vn 0.000000 -1.000000 0.000000
vn 0.000000 -1.000000 0.000000
vn 0.000000 0.000000 -1.000000
vn 0.000000 0.000000 -1.000000
vn 0.000000 0.000000 -1.000000
vn 0.000000 0.000000 -1.000000
vn 0.000000 0.000000 1.000000
vn 0.000000 0.000000 1.000000
vn 0.000000 0.000000 1.000000
vn 0.000000 0.000000 1.000000
vn 0.000000 0.000000 1.000000
vn 0.000000 0.000000 1.000000
vn 0.000000 0.000000 1.000000
vn 0.000000 0.000000 1.000000
vn 0.000000 1.000000 0.000000
vn 0.000000 1.000000 0.000000
vn 0.000000 1.000000 0.000000
vn 0.000000 1.000000 0.000000
vn 0.000000 0.000000 -1.000000
vn 0.000000 0.000000 -1.000000
vn 0.000000 0.000000 -1.000000
vn 0.000000 0.000000 -1.000000
vn 0.000000 -1.000000 0.000000
vn 0.000000 -1.000000 0.000000
vn 0.000000 -1.000000 0.000000
vn 0.000000 -1.000000 0.000000
vn 1.000000 0.000000 0.000000
vn 1.000000 0.000000 0.000000
vn 1.000000 0.000000 0.000000
vn 1.000000 0.000000 0.000000
vn -1.000000 0.000000 0.000000
vn -1.000000 0.000000 0.000000
vn -1.000000 0.000000 0.000000
vn -1.000000 0.000000 0.000000
s off
g RED6
usemtl aiStandardSurface2SG
f 1/1/1 2/2/2 4/4/3 3/14/4
f 3/3/5 4/4/6 6/6/7 5/13/8
f 5/5/9 6/6/10 8/8/11 7/12/12
f 7/7/13 8/8/14 2/2/15 1/9/16
f 2/2/17 8/8/18 6/6/19 4/4/20
f 7/10/21 1/1/22 3/14/23 5/11/24
f 9/15/25 10/16/26 12/17/27 11/18/28
f 11/19/29 12/17/30 14/20/31 13/21/32
f 13/22/33 14/20/34 16/23/35 15/24/36
f 15/25/37 16/23/38 10/16/39 9/26/40
f 10/16/41 16/23/42 14/20/43 12/17/44
f 15/27/45 9/15/46 11/18/47 13/28/48
f 17/29/49 18/30/50 20/31/51 19/32/52
f 19/33/53 20/31/54 22/34/55 21/35/56
f 21/36/57 22/34/58 24/37/59 23/38/60
f 23/39/61 24/37/62 18/30/63 17/40/64
f 18/30/65 24/37/66 22/34/67 20/31/68
f 23/41/69 17/29/70 19/32/71 21/42/72
f 25/43/73 26/44/74 28/45/75 27/46/76
f 27/47/77 28/45/78 30/48/79 29/49/80
f 29/50/81 30/48/82 32/51/83 31/52/84
f 31/53/85 32/51/86 26/44/87 25/54/88
f 26/44/89 32/51/90 30/48/91 28/45/92
f 31/55/93 25/43/94 27/46/95 29/56/96
