# This file uses centimeters as units for non-parametric coordinates.

mtllib WALLSGREEN.mtl
g default
v 33.340569 -3.483345 -11.174114
v 33.340569 -3.483345 -11.924114
v 33.340569 3.483345 -11.174114
v 33.340569 3.483345 -11.924114
v 28.091259 3.483345 -11.174114
v 28.091259 3.483345 -11.924114
v 28.091259 -3.483345 -11.174114
v 28.091259 -3.483345 -11.924114
v 19.798452 -3.483345 14.721500
v 20.548452 -3.483345 14.721500
v 19.798452 3.483345 14.721500
v 20.548452 3.483345 14.721500
v 19.798452 3.483345 9.472189
v 20.548452 3.483345 9.472189
v 19.798452 -3.483345 9.472189
v 20.548452 -3.483345 9.472189
v 8.906374 -3.483345 14.687498
v 9.656374 -3.483345 14.687498
v 8.906374 3.483345 14.687498
v 9.656374 3.483345 14.687498
v 8.906374 3.483345 9.438187
v 9.656374 3.483345 9.438187
v 8.906374 -3.483345 9.438187
v 9.656374 -3.483345 9.438187
v 16.228012 -3.483345 -6.696421
v 16.978012 -3.483345 -6.696421
v 16.228012 3.483345 -6.696421
v 16.978012 3.483345 -6.696421
v 16.228012 3.483345 -11.945732
v 16.978012 3.483345 -11.945732
v 16.228012 -3.483345 -11.945732
v 16.978012 -3.483345 -11.945732
vt 0.451093 0.220298
vt 0.499789 0.220252
vt 0.500257 0.721279
vt 0.500211 0.672583
vt 1.000000 0.672117
vt 0.951304 0.672162
vt 0.950836 0.171136
vt 0.950882 0.219831
vt 0.499743 0.171557
vt 0.000000 0.220719
vt 0.000422 0.673050
vt 0.999578 0.219786
vt 0.951350 0.720858
vt 0.451515 0.672629
vt 0.451093 0.220298
vt 0.499789 0.220252
vt 0.500211 0.672583
vt 0.451515 0.672629
vt 0.500257 0.721279
vt 0.951304 0.672162
vt 0.951350 0.720858
vt 1.000000 0.672117
vt 0.950882 0.219831
vt 0.999578 0.219786
vt 0.950836 0.171136
vt 0.499743 0.171557
vt 0.000000 0.220719
vt 0.000422 0.673050
vt 0.451093 0.220298
vt 0.499789 0.220252
vt 0.500211 0.672583
vt 0.451515 0.672629
vt 0.500257 0.721279
vt 0.951304 0.672162
vt 0.951350 0.720858
vt 1.000000 0.672117
vt 0.950882 0.219831
vt 0.999578 0.219786
vt 0.950836 0.171136
vt 0.499743 0.171557
vt 0.000000 0.220719
vt 0.000422 0.673050
vt 0.451093 0.220298
vt 0.499789 0.220252
vt 0.500211 0.672583
vt 0.451515 0.672629
vt 0.500257 0.721279
vt 0.951304 0.672162
vt 0.951350 0.720858
vt 1.000000 0.672117
vt 0.950882 0.219831
vt 0.999578 0.219786
vt 0.950836 0.171136
vt 0.499743 0.171557
vt 0.000000 0.220719
vt 0.000422 0.673050
vn 1.000000 0.000000 0.000000
vn 1.000000 0.000000 0.000000
vn 1.000000 0.000000 0.000000
vn 1.000000 0.000000 0.000000
vn 0.000000 1.000000 0.000000
vn 0.000000 1.000000 0.000000
vn 0.000000 1.000000 0.000000
vn 0.000000 1.000000 0.000000
vn -1.000000 0.000000 0.000000
vn -1.000000 0.000000 0.000000
vn -1.000000 0.000000 0.000000
vn -1.000000 0.000000 0.000000
vn 0.000000 -1.000000 0.000000
vn 0.000000 -1.000000 0.000000
vn 0.000000 -1.000000 0.000000
vn 0.000000 -1.000000 0.000000
vn 0.000000 0.000000 -1.000000
vn 0.000000 0.000000 -1.000000
vn 0.000000 0.000000 -1.000000
vn 0.000000 0.000000 -1.000000
vn 0.000000 0.000000 1.000000
vn 0.000000 0.000000 1.000000
vn 0.000000 0.000000 1.000000
vn 0.000000 0.000000 1.000000
vn 0.000000 0.000000 1.000000
vn 0.000000 0.000000 1.000000
vn 0.000000 0.000000 1.000000
vn 0.000000 0.000000 1.000000
vn 0.000000 1.000000 0.000000
vn 0.000000 1.000000 0.000000
vn 0.000000 1.000000 0.000000
vn 0.000000 1.000000 0.000000
vn 0.000000 0.000000 -1.000000
vn 0.000000 0.000000 -1.000000
vn 0.000000 0.000000 -1.000000
vn 0.000000 0.000000 -1.000000
vn 0.000000 -1.000000 0.000000
vn 0.000000 -1.000000 0.000000
vn 0.000000 -1.000000 0.000000
vn 0.000000 -1.000000 0.000000
vn 1.000000 0.000000 0.000000
vn 1.000000 0.000000 0.000000
vn 1.000000 0.000000 0.000000
vn 1.000000 0.000000 0.000000
vn -1.000000 0.000000 0.000000
vn -1.000000 0.000000 0.000000
vn -1.000000 0.000000 0.000000
vn -1.000000 0.000000 0.000000
vn 0.000000 0.000000 1.000000
vn 0.000000 0.000000 1.000000
vn 0.000000 0.000000 1.000000
vn 0.000000 0.000000 1.000000
vn 0.000000 1.000000 0.000000
vn 0.000000 1.000000 0.000000
vn 0.000000 1.000000 0.000000
vn 0.000000 1.000000 0.000000
vn 0.000000 0.000000 -1.000000
vn 0.000000 0.000000 -1.000000
vn 0.000000 0.000000 -1.000000
vn 0.000000 0.000000 -1.000000
vn 0.000000 -1.000000 0.000000
vn 0.000000 -1.000000 0.000000
vn 0.000000 -1.000000 0.000000
vn 0.000000 -1.000000 0.000000
vn 1.000000 0.000000 0.000000
vn 1.000000 0.000000 0.000000
vn 1.000000 0.000000 0.000000
vn 1.000000 0.000000 0.000000
vn -1.000000 0.000000 0.000000
vn -1.000000 0.000000 0.000000
vn -1.000000 0.000000 0.000000
vn -1.000000 0.000000 0.000000
vn 0.000000 0.000000 1.000000
vn 0.000000 0.000000 1.000000
vn 0.000000 0.000000 1.000000
vn 0.000000 0.000000 1.000000
vn 0.000000 1.000000 0.000000
vn 0.000000 1.000000 0.000000
vn 0.000000 1.000000 0.000000
vn 0.000000 1.000000 0.000000
vn 0.000000 0.000000 -1.000000
vn 0.000000 0.000000 -1.000000
vn 0.000000 0.000000 -1.000000
vn 0.000000 0.000000 -1.000000
vn 0.000000 -1.000000 0.000000
vn 0.000000 -1.000000 0.000000
vn 0.000000 -1.000000 0.000000
vn 0.000000 -1.000000 0.000000
vn 1.000000 0.000000 0.000000
vn 1.000000 0.000000 0.000000
vn 1.000000 0.000000 0.000000
vn 1.000000 0.000000 0.000000
vn -1.000000 0.000000 0.000000
vn -1.000000 0.000000 0.000000
vn -1.000000 0.000000 0.000000
vn -1.000000 0.000000 0.000000
s off
g GREEN11
usemtl aiStandardSurface3SG
f 1/1/1 2/2/2 4/4/3 3/14/4
f 3/3/5 4/4/6 6/6/7 5/13/8
f 5/5/9 6/6/10 8/8/11 7/12/12
f 7/7/13 8/8/14 2/2/15 1/9/16
f 2/2/17 8/8/18 6/6/19 4/4/20
f 7/10/21 1/1/22 3/14/23 5/11/24
f 9/15/25 10/16/26 12/17/27 11/18/28
f 11/19/29 12/17/30 14/20/31 13/21/32
f 13/22/33 14/20/34 16/23/35 15/24/36
f 15/25/37 16/23/38 10/16/39 9/26/40
f 10/16/41 16/23/42 14/20/43 12/17/44
f 15/27/45 9/15/46 11/18/47 13/28/48
f 17/29/49 18/30/50 20/31/51 19/32/52
f 19/33/53 20/31/54 22/34/55 21/35/56
f 21/36/57 22/34/58 24/37/59 23/38/60
f 23/39/61 24/37/62 18/30/63 17/40/64
f 18/30/65 24/37/66 22/34/67 20/31/68
f 23/41/69 17/29/70 19/32/71 21/42/72
f 25/43/73 26/44/74 28/45/75 27/46/76
f 27/47/77 28/45/78 30/48/79 29/49/80
f 29/50/81 30/48/82 32/51/83 31/52/84
f 31/53/85 32/51/86 26/44/87 25/54/88
f 26/44/89 32/51/90 30/48/91 28/45/92
f 31/55/93 25/43/94 27/46/95 29/56/96
